<?xml version="1.0" standalone="no"?>
<!DOCTYPE svg PUBLIC "-//W3C//DTD SVG 20010904//EN"
 "http://www.w3.org/TR/2001/REC-SVG-20010904/DTD/svg10.dtd">
<svg version="1.0" xmlns="http://www.w3.org/2000/svg"
 width="260.000000pt" height="260.000000pt" viewBox="0 0 260.000000 260.000000"
 preserveAspectRatio="xMidYMid meet">
<metadata>
Created by potrace 1.11, written by Peter Selinger 2001-2013
</metadata>
<g transform="translate(0.000000,260.000000) scale(0.100000,-0.100000)"
fill="#000000" stroke="none">
<path d="M1605 2190 c-55 -10 -137 -28 -183 -40 l-83 -23 -28 27 c-45 44 -82
36 -154 -31 -33 -32 -72 -70 -86 -84 -15 -14 -53 -38 -85 -53 -186 -84 -398
-230 -548 -377 -322 -319 -397 -683 -190 -922 23 -27 42 -54 42 -62 0 -18
-106 -224 -129 -250 -9 -11 -25 -33 -35 -48 -17 -27 -16 -29 6 -52 18 -19 33
-25 70 -25 44 0 52 4 110 59 35 33 81 89 103 125 22 36 47 65 56 66 9 0 51 -9
94 -20 111 -28 333 -28 482 1 139 27 403 124 522 192 20 11 45 25 56 31 12 6
43 28 71 48 28 20 78 56 111 80 112 79 197 154 311 273 71 75 140 136 188 167
102 66 184 148 184 183 0 30 -43 75 -72 75 -14 0 -18 5 -14 18 37 116 56 191
56 219 0 26 9 42 40 72 22 21 40 43 40 50 0 20 -50 60 -67 54 -11 -4 -14 -2
-11 8 2 8 14 15 25 17 12 2 29 12 38 22 15 16 16 22 5 35 -10 12 -26 15 -69
11 -44 -4 -60 -1 -76 13 -11 10 -40 30 -65 45 -51 31 -16 26 40 -6 l35 -20
-38 34 c-42 38 -125 69 -241 92 -110 22 -378 20 -511 -4z m460 -50 c-86 -11
-155 -11 -130 0 11 5 58 8 105 8 l85 -1 -60 -7z m161 -1 c24 -6 44 -16 44 -21
0 -6 -10 -7 -22 -4 -13 4 -38 9 -55 13 -18 3 -33 10 -33 14 0 12 12 11 66 -2z
m-316 -9 c0 -5 -10 -11 -22 -11 -13 -1 -39 -3 -58 -4 -19 -1 -53 -7 -75 -14
-49 -14 -65 -14 -65 -1 0 6 15 10 33 11 17 0 55 7 82 14 63 16 105 18 105 5z
m-230 -40 c0 -5 -8 -10 -17 -11 -46 -2 -115 -20 -218 -55 -23 -8 -47 -14 -55
-14 -8 -1 -33 -9 -55 -20 -40 -20 -87 -27 -70 -12 16 14 162 63 280 93 123 32
135 33 135 19z m760 -148 c0 -4 -20 -18 -45 -30 l-45 -22 0 23 c0 16 3 18 9 9
7 -11 9 -11 14 1 3 9 18 17 34 20 15 2 29 5 31 6 1 0 2 -3 2 -7z m-1185 -52
c3 -5 1 -10 -4 -10 -6 0 -11 5 -11 10 0 6 2 10 4 10 3 0 8 -4 11 -10z m635 -4
c0 -3 -4 -8 -10 -11 -5 -3 -10 -1 -10 4 0 6 5 11 10 11 6 0 10 -2 10 -4z m340
-4 c0 -4 -10 -9 -22 -9 -18 -2 -20 0 -8 7 18 12 30 13 30 2z m110 4 c0 -3 -4
-8 -10 -11 -5 -3 -10 -1 -10 4 0 6 5 11 10 11 6 0 10 -2 10 -4z m-1230 -21 c0
-8 -4 -15 -10 -15 -5 0 -10 7 -10 15 0 8 5 15 10 15 6 0 10 -7 10 -15z m1065
-5 c-3 -5 -12 -10 -18 -10 -7 0 -6 4 3 10 19 12 23 12 15 0z m-925 -10 c0 -5
-4 -10 -10 -10 -5 0 -10 5 -10 10 0 6 5 10 10 10 6 0 10 -4 10 -10z m-182 -30
c-7 -11 -16 -20 -20 -20 -5 0 -3 9 4 20 7 11 16 20 20 20 5 0 3 -9 -4 -20z
m1032 16 c0 -2 -7 -7 -16 -10 -8 -3 -12 -2 -9 4 6 10 25 14 25 6z m150 -1 c0
-2 -13 -11 -30 -20 -16 -9 -30 -11 -30 -6 0 7 22 19 58 30 1 1 2 -1 2 -4z
m-510 -9 c0 -2 -7 -6 -15 -10 -8 -3 -15 -1 -15 4 0 6 7 10 15 10 8 0 15 -2 15
-4z m-40 -14 c0 -5 -7 -9 -15 -9 -8 0 -12 4 -9 9 3 4 9 8 15 8 5 0 9 -4 9 -8z
m-660 -32 c0 -5 -4 -10 -10 -10 -5 0 -10 5 -10 10 0 6 5 10 10 10 6 0 10 -4
10 -10z m580 0 c0 -5 -8 -10 -17 -10 -15 0 -16 2 -3 10 19 12 20 12 20 0z
m315 -10 c-3 -5 -12 -10 -18 -10 -7 0 -6 4 3 10 19 12 23 12 15 0z m-360 -10
c-3 -5 -12 -10 -18 -10 -7 0 -6 4 3 10 19 12 23 12 15 0z m840 -12 c-1 -13 -3
-29 -4 -35 0 -7 -6 -13 -11 -13 -6 0 -8 11 -4 25 4 17 2 25 -7 25 -11 0 -11 3
1 10 23 15 27 12 25 -12z m-1575 6 c0 -3 -9 -17 -20 -31 -11 -14 -20 -20 -20
-14 0 24 -65 -25 -172 -130 -59 -58 -108 -111 -108 -118 0 -6 -3 -11 -8 -11
-4 0 -16 -16 -26 -35 -17 -31 -36 -46 -36 -29 0 23 175 228 230 269 147 109
160 117 160 99z m180 2 c0 -3 -4 -8 -10 -11 -5 -3 -10 -1 -10 4 0 6 5 11 10
11 6 0 10 -2 10 -4z m515 -15 c-3 -6 -11 -8 -17 -5 -6 4 -5 9 3 15 16 10 23 4
14 -10z m-310 -1 c3 -5 1 -10 -4 -10 -6 0 -11 5 -11 10 0 6 2 10 4 10 3 0 8
-4 11 -10z m665 6 c0 -2 -7 -6 -15 -10 -8 -3 -15 -1 -15 4 0 6 7 10 15 10 8 0
15 -2 15 -4z m476 -5 c-3 -5 -16 -11 -28 -14 -22 -6 -22 -5 -4 8 22 17 40 20
32 6z m-376 -22 c-7 -11 -14 -18 -17 -15 -3 3 0 12 7 21 18 21 23 19 10 -6z
m-500 7 c0 -2 -7 -7 -16 -10 -8 -3 -12 -2 -9 4 6 10 25 14 25 6z m645 -16 c3
-5 1 -10 -4 -10 -6 0 -11 5 -11 10 0 6 2 10 4 10 3 0 8 -4 11 -10z m168 -7
c-5 -13 -3 -15 13 -9 14 5 16 4 8 -4 -13 -13 -44 -3 -44 16 0 8 7 14 15 14 9
0 12 -6 8 -17z m57 7 c0 -5 -4 -10 -10 -10 -5 0 -10 5 -10 10 0 6 5 10 10 10
6 0 10 -4 10 -10z m-1386 -24 c-3 -9 -10 -16 -15 -16 -5 0 -4 9 3 20 14 22 21
20 12 -4z m462 15 c-3 -5 -16 -11 -28 -14 -22 -6 -22 -5 -4 8 22 17 40 20 32
6z m264 -31 c0 -6 -8 -13 -17 -16 -10 -3 -26 -10 -36 -15 -30 -16 -72 -31 -64
-22 10 10 99 61 110 62 4 1 7 -4 7 -9z m250 0 c0 -5 -4 -10 -10 -10 -5 0 -10
5 -10 10 0 6 5 10 10 10 6 0 10 -4 10 -10z m180 0 c0 -5 -4 -10 -10 -10 -5 0
-10 5 -10 10 0 6 5 10 10 10 6 0 10 -4 10 -10z m-1187 -30 c-3 -11 -9 -20 -15
-20 -5 0 -4 9 2 20 6 11 12 20 14 20 2 0 2 -9 -1 -20z m387 15 c0 -2 -9 -9
-20 -15 -12 -6 -20 -7 -20 -1 0 5 8 12 18 14 9 3 18 5 20 6 1 0 2 -1 2 -4z
m-120 -15 c0 -5 -2 -10 -4 -10 -3 0 -8 5 -11 10 -3 6 -1 10 4 10 6 0 11 -4 11
-10z m850 -10 c0 -5 -4 -10 -10 -10 -5 0 -10 5 -10 10 0 6 5 10 10 10 6 0 10
-4 10 -10z m60 -6 c0 -8 -5 -12 -10 -9 -6 4 -8 11 -5 16 9 14 15 11 15 -7z
m-450 -34 c0 -22 -4 -40 -10 -40 -5 0 -10 18 -10 40 0 22 5 40 10 40 6 0 10
-18 10 -40z m-941 -20 c-13 -23 -25 -36 -27 -30 -4 11 40 82 46 75 2 -2 -6
-22 -19 -45z m833 28 c-7 -7 -12 -8 -12 -2 0 6 3 14 7 17 3 4 9 5 12 2 2 -3
-1 -11 -7 -17z m-651 -11 c-10 -9 -11 -8 -5 6 3 10 9 15 12 12 3 -3 0 -11 -7
-18z m286 1 c-3 -8 -6 -5 -6 6 -1 11 2 17 5 13 3 -3 4 -12 1 -19z m308 -36
c-2 -3 -12 -1 -22 2 -15 6 -15 9 -3 16 13 8 35 -8 25 -18z m339 12 c8 -21 8
-24 -3 -24 -5 0 -11 9 -14 20 -6 24 8 27 17 4z m193 -6 c-3 -8 -6 -5 -6 6 -1
11 2 17 5 13 3 -3 4 -12 1 -19z m-1155 -25 c-5 -10 -19 -39 -31 -65 -13 -27
-26 -48 -31 -48 -7 0 28 76 53 118 12 18 19 14 9 -5z m684 -41 c-9 -8 -56 40
-50 50 3 5 17 -3 30 -18 14 -14 23 -29 20 -32z m725 10 c-11 -16 -27 -35 -36
-42 -13 -11 -15 -9 -15 13 0 26 32 57 58 57 10 0 8 -8 -7 -28z m-431 14 c0 -3
-4 -8 -10 -11 -5 -3 -10 -1 -10 4 0 6 5 11 10 11 6 0 10 -2 10 -4z m240 0 c0
-3 -4 -8 -10 -11 -5 -3 -10 -1 -10 4 0 6 5 11 10 11 6 0 10 -2 10 -4z m-1080
-21 c-14 -7 -27 -11 -30 -9 -6 7 22 24 40 23 9 0 5 -6 -10 -14z m1005 6 c3 -5
1 -12 -5 -16 -5 -3 -10 1 -10 9 0 18 6 21 15 7z m65 -21 c0 -5 -2 -10 -4 -10
-3 0 -8 5 -11 10 -3 6 -1 10 4 10 6 0 11 -4 11 -10z m-793 -26 c-2 -3 -14 -6
-26 -9 -11 -2 -26 -7 -31 -10 -6 -3 -10 -4 -10 -2 0 11 65 45 69 36 1 -6 1
-12 -2 -15z m350 -16 c-3 -8 -6 -5 -6 6 -1 11 2 17 5 13 3 -3 4 -12 1 -19z
m-187 -13 c0 -8 -7 -15 -15 -15 -8 0 -15 -5 -15 -12 0 -6 -3 -9 -6 -6 -7 7 18
48 28 48 5 0 8 -7 8 -15z m-206 -19 c-3 -9 -10 -16 -15 -16 -5 0 -4 9 3 20 14
22 21 20 12 -4z m-66 -6 c-15 -23 -28 -26 -28 -6 0 8 8 17 18 19 9 3 18 5 20
6 1 0 -3 -8 -10 -19z m-548 -10 c-6 -11 -13 -20 -16 -20 -2 0 0 9 6 20 6 11
13 20 16 20 2 0 0 -9 -6 -20z m177 -12 c-15 -9 -19 -4 -11 16 5 14 9 15 15 5
5 -8 3 -17 -4 -21z m833 28 c0 -3 -4 -8 -10 -11 -5 -3 -10 -1 -10 4 0 6 5 11
10 11 6 0 10 -2 10 -4z m420 -16 c0 -5 -4 -10 -10 -10 -5 0 -10 5 -10 10 0 6
5 10 10 10 6 0 10 -4 10 -10z m-627 -30 c-3 -11 -9 -20 -15 -20 -5 0 -4 9 2
20 6 11 12 20 14 20 2 0 2 -9 -1 -20z m-1004 -21 c-6 -13 -25 -59 -41 -103
-23 -64 -28 -72 -22 -38 6 47 62 178 70 169 3 -3 0 -16 -7 -28z m181 6 c0 -8
-4 -15 -10 -15 -5 0 -7 7 -4 15 4 8 8 15 10 15 2 0 4 -7 4 -15z m1440 5 c0 -5
-4 -10 -10 -10 -5 0 -10 5 -10 10 0 6 5 10 10 10 6 0 10 -4 10 -10z m-862 -32
c-7 -13 -11 -26 -10 -30 1 -5 -5 -8 -13 -8 -8 0 -15 7 -15 16 0 8 5 12 11 9 6
-4 13 2 16 14 3 12 9 21 15 21 5 0 3 -10 -4 -22z m200 0 c-2 -6 -10 -14 -16
-16 -7 -2 -10 2 -6 12 7 18 28 22 22 4z m-788 -5 c0 -5 -5 -15 -10 -23 -7 -12
-9 -10 -7 8 1 19 17 33 17 15z m1410 -8 c0 -8 5 -15 10 -15 6 0 10 -5 10 -12
0 -6 -9 -3 -20 7 -22 20 -26 35 -10 35 6 0 10 -7 10 -15z m-1010 -5 c-33 -23
-50 -30 -50 -22 0 5 10 14 23 20 28 14 47 15 27 2z m564 1 c7 -10 -43 -66 -51
-58 -3 3 5 19 18 36 28 35 26 34 33 22z m-203 -39 c-6 -11 -7 -22 -4 -26 3 -3
1 -6 -5 -6 -7 0 -12 2 -12 5 0 10 24 55 27 51 3 -2 0 -13 -6 -24z m-795 -34
c-19 -26 -22 -7 -4 25 7 13 13 17 15 10 3 -7 -3 -23 -11 -35z m439 33 c3 -5 1
-12 -5 -16 -5 -3 -10 1 -10 9 0 18 6 21 15 7z m158 -11 c-3 -11 -7 -20 -9 -20
-2 0 -4 9 -4 20 0 11 4 20 9 20 5 0 7 -9 4 -20z m676 -6 c-9 -11 -9 -14 0 -14
7 0 9 -5 5 -11 -5 -8 -9 -8 -14 1 -4 7 -13 9 -20 5 -9 -6 -11 -4 -5 6 17 29
28 39 37 33 5 -3 4 -12 -3 -20z m-919 9 c0 -5 -18 -18 -41 -31 -22 -13 -48
-30 -58 -38 -25 -22 -108 -69 -94 -54 15 16 176 128 186 129 4 1 7 -2 7 -6z
m860 -13 c9 -16 8 -18 -5 -14 -9 4 -22 -1 -31 -12 -14 -18 -14 -18 -4 4 6 12
8 22 5 22 -4 0 -3 5 0 10 10 16 23 12 35 -10z m-305 -18 c6 -4 19 -18 30 -32
l20 -25 -26 23 c-14 12 -33 22 -42 22 -9 0 -17 5 -17 10 0 12 20 13 35 2z
m-475 -36 c0 -19 -4 -38 -10 -41 -6 -4 -10 10 -10 34 0 23 5 41 10 41 6 0 10
-15 10 -34z m350 24 c0 -5 -4 -10 -10 -10 -5 0 -10 5 -10 10 0 6 5 10 10 10 6
0 10 -4 10 -10z m59 -27 c-13 -16 -25 -30 -26 -32 -2 -2 -5 -2 -8 1 -7 7 34
58 47 58 7 0 1 -12 -13 -27z m-905 -17 c-10 -8 -21 -12 -23 -10 -3 2 4 11 15
18 10 8 21 12 23 10 3 -2 -4 -11 -15 -18z m836 14 c0 -5 -2 -10 -4 -10 -3 0
-8 5 -11 10 -3 6 -1 10 4 10 6 0 11 -4 11 -10z m400 4 c0 -3 -9 -18 -20 -34
-11 -15 -17 -30 -13 -34 3 -3 1 -6 -6 -6 -7 0 -11 3 -9 8 3 4 10 22 17 40 11
27 31 44 31 26z m-1370 -80 c0 -19 -4 -34 -10 -34 -5 0 -10 18 -10 41 0 24 4
38 10 34 6 -3 10 -22 10 -41z m100 36 c0 -5 -4 -10 -10 -10 -5 0 -10 5 -10 10
0 6 5 10 10 10 6 0 10 -4 10 -10z m1380 -15 c0 -21 -185 -139 -329 -211 -130
-64 -338 -141 -350 -128 -3 4 -1 9 6 11 7 2 11 10 9 16 -1 7 -1 9 1 5 8 -13
38 -9 94 13 30 12 72 28 94 36 22 9 57 24 78 35 20 11 37 16 37 13 0 -4 13 3
29 14 16 12 32 21 35 21 8 0 123 67 200 117 37 25 71 54 73 64 6 21 23 16 23
-6z m-323 -7 c-3 -8 -6 -5 -6 6 -1 11 2 17 5 13 3 -3 4 -12 1 -19z m-1092 2
c3 -5 1 -10 -4 -10 -6 0 -11 5 -11 10 0 6 2 10 4 10 3 0 8 -4 11 -10z m275
-10 c0 -5 -2 -10 -4 -10 -3 0 -8 5 -11 10 -3 6 -1 10 4 10 6 0 11 -4 11 -10z
m290 -26 c0 -13 -4 -24 -10 -24 -5 0 -10 14 -10 31 0 17 4 28 10 24 6 -3 10
-17 10 -31z m380 26 c0 -5 -4 -10 -10 -10 -5 0 -10 5 -10 10 0 6 5 10 10 10 6
0 10 -4 10 -10z m-970 -10 c0 -5 -8 -10 -17 -10 -15 0 -16 2 -3 10 19 12 20
12 20 0z m266 -27 c-10 -10 -19 5 -10 18 6 11 8 11 12 0 2 -7 1 -15 -2 -18z
m864 20 c-8 -4 -20 -13 -27 -22 -13 -17 -16 -12 -7 13 3 9 16 16 28 15 15 0
16 -2 6 -6z m136 -21 c-16 -30 -40 -54 -74 -72 -21 -10 -27 -9 -48 11 -29 27
-23 40 6 14 26 -23 57 -11 97 39 34 43 38 45 19 8z m-1012 -27 c-4 -8 -8 -15
-10 -15 -2 0 -4 7 -4 15 0 8 4 15 10 15 5 0 7 -7 4 -15z m690 1 c-6 -16 -34
-30 -34 -18 0 5 5 13 12 20 16 16 29 15 22 -2z m-137 -123 c20 -19 15 -28 -5
-10 -10 10 -23 14 -28 10 -5 -5 -6 -4 -2 1 4 5 2 16 -5 25 -11 14 -10 15 8 1
11 -8 26 -20 32 -27z m195 15 c-7 -7 -12 -8 -12 -2 0 14 12 26 19 19 2 -3 -1
-11 -7 -17z m-409 -28 c3 -11 1 -23 -4 -26 -5 -3 -9 6 -9 20 0 31 6 34 13 6z
m359 -1 c-18 -12 -35 -19 -38 -16 -3 3 7 12 23 21 42 23 53 19 15 -5z m-766
-61 c-8 -18 -17 -41 -20 -50 -3 -10 -10 -18 -15 -18 -11 0 30 99 41 100 4 0 1
-15 -6 -32z m604 16 c0 -8 -5 -12 -10 -9 -6 4 -8 11 -5 16 9 14 15 11 15 -7z
m-130 -104 c0 -23 -430 -65 -443 -43 -4 6 50 13 146 17 188 8 264 23 258 51
-3 20 -3 20 18 1 12 -11 21 -22 21 -26z m-514 -5 c-3 -8 0 -15 6 -15 6 0 9 -3
5 -6 -10 -11 -26 6 -20 21 3 8 7 15 10 15 3 0 3 -7 -1 -15z m44 -25 c0 -5 -4
-10 -10 -10 -5 0 -10 5 -10 10 0 6 5 10 10 10 6 0 10 -4 10 -10z"/>
</g>
</svg>
